Coordinates
version=1
nRows=6
nColumns=36
inDegrees=yes

Units are S.I. units (second, meters, Newtons, ...)
If the header above contains a line with 'inDegrees', this indicates whether rotational values are in degrees (yes) or radians (no).

endheader
time	pelvis_tilt	pelvis_list	pelvis_rotation	pelvis_tx	pelvis_ty	pelvis_tz	hip_flexion_r	hip_adduction_r	hip_rotation_r	knee_angle_r	knee_angle_r_beta	ankle_angle_r	subtalar_angle_r	mtp_angle_r	hip_flexion_l	hip_adduction_l	hip_rotation_l	knee_angle_l	knee_angle_l_beta	ankle_angle_l	subtalar_angle_l	mtp_angle_l	lumbar_extension	lumbar_bending	lumbar_rotation	arm_flex_r	arm_add_r	arm_rot_r	elbow_flex_r	pro_sup_r	arm_flex_l	arm_add_l	arm_rot_l	elbow_flex_l	pro_sup_l
      4.88333330	    -31.50249572	      3.31405884	      4.10865652	      0.41786043	      0.71644125	     -0.08212865	     87.83384322	    -25.83525624	      1.90700624	     80.83267234	      1.41079628	     34.85635456	     13.12850147	     -7.49999987	     82.39251331	    -23.35376050	    -10.34929940	     82.62927020	      1.44215282	     27.67011208	      8.32008150	     -7.49999987	    -32.75709884	     -0.88377738	      1.09514301	     75.14018510	     12.76695901	     73.64893980	    122.36188704	     90.93162191	     86.76991188	     10.82668045	     71.20281698	    130.35024046	     97.55994979
      4.90000000	    -30.88113340	      3.49344732	      3.70484703	      0.41970445	      0.72480111	     -0.07867770	     85.69517930	    -25.21015599	      1.32306948	     79.02034149	      1.37916514	     34.84747717	     13.15947570	     -7.49999987	     79.96833925	    -23.68092608	    -11.17770058	     80.81518100	      1.41049099	     27.61996796	      9.07026104	     -7.49999987	    -32.36356226	     -1.31096491	      1.32504370	     73.84453883	     13.18559154	     73.55976881	    121.95962101	     94.88258364	     85.83011732	     10.59372533	     71.92293179	    130.94433790	     99.70149727
      4.91666670	    -30.49343906	      3.51780368	      3.44530687	      0.41922601	      0.73576573	     -0.07883117	     83.69648042	    -24.74160830	      0.54575652	     77.01225917	      1.34411749	     34.66438820	     13.15725977	     -7.49999987	     78.12416569	    -23.78276563	    -11.85740803	     78.97539582	      1.37838069	     27.23746193	      9.03365183	     -7.49999987	    -31.45669186	     -1.59596638	      1.34555373	     72.48110118	     13.42839801	     73.79443887	    122.14823028	     94.74843463	     84.78008913	     10.58996712	     72.17518578	    131.14112951	     99.48222627
      4.93333330	    -29.80483170	      3.54703253	      3.31617379	      0.42156619	      0.75591478	     -0.07554947	     80.70497645	    -24.29135891	     -0.51645556	     74.12790363	      1.29377599	     34.14944248	     12.85362463	     -7.49999987	     75.54121484	    -23.69066862	    -12.81873045	     76.50362866	      1.33524021	     26.43855025	      8.85383827	     -7.49999987	    -31.29022702	     -1.89291258	      1.47670507	     71.09928493	     13.78738297	     73.70035943	    122.09834302	     90.76903826	     83.84753916	     10.42819365	     72.67310502	    131.52840076	     95.35807547
      4.95000000	    -29.09096155	      3.43636300	      3.17779582	      0.42142377	      0.76225540	     -0.07602270	     78.16861126	    -23.89132401	     -1.43827850	     71.78999932	      1.25297186	     33.46858476	     12.42596332	     -7.49999987	     73.39349318	    -23.54435539	    -13.37663056	     74.26646695	      1.29619437	     25.74520966	      8.60966382	     -7.49999987	    -30.68579510	     -1.87406398	      1.48324085	     69.63166696	     13.52479193	     72.66768189	    122.26921431	     89.97711797	     83.39701543	     10.50876280	     72.44031907	    131.46400845	     94.36588805
      4.96666670	    -28.33293002	      3.20429264	      3.07938834	      0.42447813	      0.77321580	     -0.07846218	     75.63958219	    -23.61082823	     -2.40247456	     69.66766979	      1.21593022	     32.84820052	     12.47530703	     -7.49999987	     71.37612979	    -23.37430208	    -13.88165045	     72.33351894	      1.26245807	     24.91194475	      8.13770567	     -7.49999987	    -29.86298508	     -1.76689047	      1.49366776	     68.31170301	     13.43656313	     71.97613168	    122.75884670	     90.67372004	     82.46227375	     10.72708068	     72.02876645	    131.22559911	     94.72181535
